# xmcd CD database file
#
# Track frame offsets:
#	150
#	23695
#	38125
#	58894
#	78547
#	104252
#	125937
#	145460
#	162422
#	177403
#
# Disc length: 2549 seconds
#
# Revision: 0
# Processed by: cddbd v1.5.2PL0 Copyright (c) Steve Scherf et al.
# Submitted via: CDex 1.70beta2
#
DISCID=9009f30a
DTITLE=Między Nami Cafe - in Roma
DYEAR=2008
DGENRE=Jazz
TTITLE0=Dean Martin - Mambo Italiano (Club des Belugas remix)
TTITLE1=Marino Marini - Guaglione
TTITLE2=Montefiori Coktail - Sunny
TTITLE3=Roberto Coelho - Taste Of Mambo
TTITLE4=Soulstance - Lost On A Wave
TTITLE5=Bebo Best and The Super Lounge Orchestra - Dolce Vita
TTITLE6=Paolo Fedreghini and Marco Bianchi - Onda Espumante
TTITLE7=Montefiori Coktail - Quando Quando Quando
TTITLE8=Renato Carosone - Tu Vuo' Fa' L'Americano
TTITLE9=Nino Rota - La Dolce Vita (Finale)
EXTD=YEAR: 2008
EXTT0=
EXTT1=
EXTT2=
EXTT3=
EXTT4=
EXTT5=
EXTT6=
EXTT7=
EXTT8=
EXTT9=
PLAYORDER=
